# File produced by Open Asset Import Library (http://www.assimp.sf.net)
# (assimp v5.0.1588609223)

mtllib result.mtl

# 88 vertex positions
v  1.1924881e-09 0.099999994 -0.092117339
v  -0.070710666 0.070710681 -0.092117332
v  -0.1 5.1049653e-09 -0.09211731
v  -0.070710681 -0.070710689 -0.092117287
v  -4.371139e-09 -0.10000001 -0.09211728
v  0.070710681 -0.070710689 -0.092117287
v  0.1 -3.6373109e-09 -0.09211731
v  0.070710674 0.070710681 -0.092117332
v  0.070710681 -0.070710674 -0.059433021
v  0.1 4.2179202e-09 -0.059433043
v  -4.371139e-09 -0.099999994 -0.059433009
v  -0.070710681 -0.070710674 -0.059433021
v  -0.1 1.2960196e-08 -0.059433043
v  -0.070710666 0.070710696 -0.059433065
v  1.1924881e-09 0.10000001 -0.059433077
v  0.070710674 0.070710696 -0.059433065
v  0.085077323 -0.085077316 -0.059325367
v  0.1203175 2.3588012e-09 -0.05932539
v  -5.3538556e-09 -0.12031749 -0.059325349
v  -0.085077323 -0.085077316 -0.059325367
v  -0.1203175 1.2877291e-08 -0.05932539
v  -0.085077301 0.085077338 -0.059325412
v  1.3401611e-09 0.1203175 -0.059325431
v  0.085077308 0.085077338 -0.059325412
v  0.085077323 -0.085077338 -0.096924573
v  0.1203175 -9.8925774e-09 -0.096924603
v  -5.3538556e-09 -0.12031751 -0.096924566
v  -0.085077323 -0.085077338 -0.096924573
v  -0.1203175 6.2591354e-10 -0.096924603
v  -0.085077301 0.085077316 -0.096924633
v  1.3401611e-09 0.12031748 -0.09692464
v  0.085077308 0.085077316 -0.096924633
v  0.070710681 -0.070710696 -0.096848644
v  0.1 -1.0436093e-08 -0.096848667
v  -4.371139e-09 -0.10000002 -0.096848637
v  -0.070710681 -0.070710696 -0.096848644
v  -0.1 -1.6938131e-09 -0.096848667
v  -0.070710666 0.070710674 -0.096848689
v  1.1924881e-09 0.099999987 -0.096848696
v  0.070710674 0.070710674 -0.096848689
v  0.070710681 -0.070710815 -0.49462128
v  0.10000001 -1.4238101e-07 -0.49462128
v  -4.371139e-09 -0.10000015 -0.49462122
v  -0.070710681 -0.070710815 -0.49462128
v  -0.10000001 -1.3363874e-07 -0.49462128
v  -0.070710674 0.070710547 -0.49462128
v  1.1924881e-09 0.099999867 -0.49462134
v  0.070710674 0.070710547 -0.49462128
v  0.070710681 -0.07071095 -0.90197074
v  0.1 -2.703687e-07 -0.90197074
v  -4.371139e-09 -0.10000027 -0.90197074
v  -0.070710681 -0.07071095 -0.90197074
v  -0.1 -2.6162641e-07 -0.90197074
v  -0.070710666 0.070710421 -0.90197074
v  1.1924881e-09 0.099999733 -0.90197074
v  0.070710674 0.070710421 -0.90197074
v  0.085077323 -0.085077591 -0.90307546
v  0.1203175 -2.7256988e-07 -0.90307546
v  -5.3538556e-09 -0.12031776 -0.90307546
v  -0.085077323 -0.085077591 -0.90307546
v  -0.1203175 -2.6205137e-07 -0.90307546
v  -0.085077301 0.085077062 -0.90307546
v  1.3401611e-09 0.12031723 -0.90307546
v  0.085077308 0.085077062 -0.90307546
v  0.085077323 -0.085077614 -0.94067466
v  0.1203175 -2.8482123e-07 -0.94067466
v  -5.3538556e-09 -0.12031779 -0.94067466
v  -0.085077323 -0.085077614 -0.94067466
v  -0.1203175 -2.7430275e-07 -0.94067466
v  -0.085077301 0.08507704 -0.94067466
v  1.3401611e-09 0.12031721 -0.94067466
v  0.085077308 0.08507704 -0.94067466
v  0.070710681 -0.070710972 -0.94103122
v  0.1 -2.8548678e-07 -0.94103122
v  -4.371139e-09 -0.10000029 -0.94103122
v  -0.070710681 -0.070710972 -0.94103122
v  -0.1 -2.7674449e-07 -0.94103122
v  -0.070710666 0.070710398 -0.94103122
v  1.1924881e-09 0.099999711 -0.94103122
v  0.070710674 0.070710398 -0.94103122
v  0.070710681 -0.070710957 -0.91210938
v  0.1 -2.7869305e-07 -0.91210938
v  -4.371139e-09 -0.10000028 -0.91210938
v  -0.070710681 -0.070710957 -0.91210938
v  -0.1 -2.6995076e-07 -0.91210938
v  -0.070710666 0.070710413 -0.91210938
v  1.1924881e-09 0.099999726 -0.91210938
v  0.070710674 0.070710413 -0.91210938

# 0 UV coordinates

# 209 vertex normals
vn 6.8453167e-15 3.1352079e-07 1
vn 6.8453171e-15 3.1352079e-07 1
vn -0.92387962 0.38268349 -1.0980236e-07
vn -0.3826834 0.92387962 -2.4980218e-07
vn -0.38268337 0.92387956 -2.4980216e-07
vn 0.38268343 0.92387956 -2.4980218e-07
vn 0.38268343 0.92387962 -2.4980218e-07
vn 0.92387962 0.3826834 -1.0980234e-07
vn 0.92387956 0.38268343 -1.0980234e-07
vn 0.9238795 -0.38268355 1.0980233e-07
vn 0.9238795 -0.38268352 1.0980234e-07
vn 0.38268343 -0.92387956 2.7307092e-07
vn 0.38268343 -0.92387962 2.7307092e-07
vn -0.3826834 -0.92387962 2.2653354e-07
vn -0.38268337 -0.92387956 2.2653356e-07
vn -0.92387956 -0.38268343 1.0980232e-07
vn -0.92387956 -0.38268337 1.0980231e-07
vn -0.92387962 -0.3826834 1.0980233e-07
vn -0.0052983863 0.0021949462 0.99998355
vn -0.0052983868 0.0021949464 0.99998361
vn -0.0021946109 0.0052987658 0.99998361
vn -0.0021946109 0.0052987658 0.99998355
vn 0.0021946111 0.0052987658 0.99998361
vn 0.0021946109 0.0052987654 0.99998355
vn 0.0052983873 0.0021949462 0.99998361
vn 0.0052983868 0.0021949459 0.99998355
vn 0.0052983873 0.0021949462 0.99998355
vn 0.0052985563 -0.0021944516 0.99998361
vn 0.0052985568 -0.0021944516 0.99998355
vn 0.0052985568 -0.0021944516 0.99998361
vn 0.0021947855 -0.0052981768 0.99998355
vn 0.0021947855 -0.0052981772 0.99998355
vn 0.0021947857 -0.0052981772 0.99998361
vn -0.0021947857 -0.0052981777 0.99998355
vn -0.002194786 -0.0052981777 0.99998361
vn -0.0052985568 -0.0021944514 0.99998355
vn -0.0052985568 -0.0021944514 0.99998361
vn -0.0052985572 -0.0021944516 0.99998361
vn 0.92387956 -0.38268343 1.6802993e-07
vn 0.92387956 -0.38268337 1.6802991e-07
vn 0.38268337 -0.92387962 4.1023407e-07
vn 0.38268334 -0.92387956 4.1023407e-07
vn 0.38268334 -0.92387962 4.1023407e-07
vn 0.38268334 -0.92387956 4.1023404e-07
vn -0.38268334 -0.92387956 4.1023407e-07
vn -0.38268337 -0.92387962 4.1023409e-07
vn -0.38268334 -0.92387956 4.1023409e-07
vn -0.38268334 -0.92387962 4.1023412e-07
vn -0.92387956 -0.38268334 1.5121853e-07
vn -0.92387956 -0.38268334 1.5121854e-07
vn -0.92387956 0.38268363 -1.5121853e-07
vn -0.9238795 0.3826836 -1.5121852e-07
vn -0.38268343 0.92387956 -4.1023412e-07
vn -0.3826834 0.92387962 -4.1023415e-07
vn -0.38268337 0.92387956 -4.1023412e-07
vn -0.38268343 0.92387962 -4.1023412e-07
vn 0.38268334 0.92387962 -4.1023409e-07
vn 0.38268331 0.92387956 -4.1023407e-07
vn 0.38268331 0.92387962 -4.1023412e-07
vn 0.38268331 0.92387956 -4.1023409e-07
vn 0.9238795 0.38268346 -1.3440713e-07
vn 0.9238795 0.38268346 -1.3440712e-07
vn -0.0037373886 0.0015476984 -0.99999189
vn -0.0037373884 0.0015476982 -0.99999183
vn -0.0015479518 0.0037370434 -0.99999189
vn -0.0015479518 0.0037370429 -0.99999189
vn -0.0015479517 0.0037370429 -0.99999183
vn -0.0015479518 0.0037370431 -0.99999189
vn 0.0015479519 0.0037370434 -0.99999189
vn 0.0015479517 0.0037370429 -0.99999183
vn 0.0015479519 0.0037370431 -0.99999189
vn 0.0037373886 0.001547698 -0.99999183
vn 0.0037373891 0.0015476982 -0.99999189
vn 0.0037373889 0.0015476982 -0.99999183
vn 0.0037375195 -0.0015485103 -0.99999189
vn 0.0037375193 -0.0015485102 -0.99999183
vn 0.0015482557 -0.0037378641 -0.99999183
vn 0.0015482559 -0.0037378646 -0.99999189
vn 0.0015482558 -0.0037378643 -0.99999189
vn -0.0015482552 -0.0037378636 -0.99999183
vn -0.0015482554 -0.0037378641 -0.99999189
vn -0.0015482554 -0.0037378641 -0.99999183
vn -0.003737519 -0.0015485098 -0.99999183
vn -0.003737519 -0.0015485097 -0.99999183
vn -0.0037375193 -0.0015485098 -0.99999189
vn -0.003737519 -0.0015485097 -0.99999189
vn 0.9238795 -0.38268346 1.304884e-07
vn 0.92387956 -0.38268349 1.3048842e-07
vn 0.38268346 -0.9238795 2.9849673e-07
vn 0.38268346 -0.92387956 2.9849676e-07
vn 0.38268352 -0.92387956 2.9849676e-07
vn 0.38268349 -0.92387956 2.9849676e-07
vn -0.38268349 -0.9238795 2.9849676e-07
vn -0.38268352 -0.9238795 2.9849676e-07
vn -0.38268358 -0.92387956 2.9849679e-07
vn -0.92387956 -0.38268343 1.2953242e-07
vn -0.92387962 -0.3826834 1.2953242e-07
vn -0.92387962 -0.38268343 1.2953242e-07
vn -0.9238795 0.38268358 -1.0850103e-07
vn -0.92387956 0.3826836 -1.0850104e-07
vn -0.92387956 0.38268363 -1.0850105e-07
vn -0.38268337 0.92387956 -2.8702513e-07
vn -0.38268343 0.92387956 -2.8702513e-07
vn -0.3826834 0.92387956 -2.8702513e-07
vn 0.38268343 0.92387956 -2.9084902e-07
vn 0.38268337 0.92387956 -2.9084902e-07
vn 0.3826834 0.92387956 -2.9084902e-07
vn 0.9238795 0.38268346 -1.1423685e-07
vn 0.92387956 0.38268349 -1.1423685e-07
vn 0.9238795 -0.38268346 1.175454e-07
vn 0.92387956 -0.38268346 1.1754541e-07
vn 0.38268346 -0.92387956 2.9616245e-07
vn -0.38268355 -0.92387956 2.9242847e-07
vn -0.38268352 -0.92387956 2.9242847e-07
vn -0.38268349 -0.92387956 2.9242847e-07
vn -0.38268349 -0.9238795 2.9242844e-07
vn -0.92387956 -0.38268346 1.156784e-07
vn -0.9238795 -0.38268346 1.1567839e-07
vn -0.9238795 0.38268358 -1.3994934e-07
vn -0.38268349 0.92387956 -3.0736453e-07
vn -0.38268349 0.92387962 -3.0736453e-07
vn 0.3826834 0.92387956 -3.0363051e-07
vn 0.38268343 0.92387956 -3.0363051e-07
vn 0.38268337 0.92387956 -3.0363051e-07
vn 0.9238795 0.38268346 -1.3061435e-07
vn 0.92387956 0.38268346 -1.3061435e-07
vn 0.05427856 -0.022482866 0.99827278
vn 0.05427856 -0.022482866 0.99827272
vn 0.022482909 -0.054278512 0.99827278
vn 0.022482907 -0.054278508 0.99827272
vn 0.022482909 -0.054278508 0.99827272
vn -0.022482907 -0.054278512 0.99827272
vn -0.022482911 -0.054278519 0.99827278
vn -0.022482909 -0.054278515 0.99827272
vn -0.054278564 -0.022482866 0.99827278
vn -0.05427856 -0.022482866 0.99827272
vn -0.054278564 0.022482965 0.99827278
vn -0.054278556 0.022482965 0.99827272
vn -0.05427856 0.022482963 0.99827272
vn -0.022482909 0.054278605 0.99827272
vn -0.022482909 0.054278608 0.99827278
vn -0.022482909 0.054278612 0.99827278
vn 0.022482911 0.054278608 0.99827278
vn 0.022482913 0.054278612 0.99827278
vn 0.022482911 0.054278605 0.99827272
vn 0.054278567 0.022482961 0.99827278
vn 0.05427856 0.022482961 0.99827272
vn 0.05427856 0.02248296 0.99827272
vn 0.92387962 -0.38268337 1.5121856e-07
vn 0.92387956 -0.3826834 1.5121856e-07
vn 0.92387956 -0.38268337 1.5121856e-07
vn 0.38268337 -0.92387962 4.1023412e-07
vn 0.38268334 -0.92387956 4.1023412e-07
vn -0.38268334 -0.92387956 4.1023412e-07
vn -0.38268337 -0.92387962 4.1023412e-07
vn -0.92387962 -0.38268334 1.5121856e-07
vn -0.92387962 -0.38268334 1.5121854e-07
vn -0.92387956 -0.38268334 1.5121856e-07
vn -0.9238795 0.38268358 -1.5121856e-07
vn -0.92387956 0.38268363 -1.5121856e-07
vn -0.9238795 0.38268358 -1.5121854e-07
vn -0.38268334 0.92387956 -4.1023424e-07
vn -0.38268337 0.92387962 -4.1023426e-07
vn 0.38268337 0.92387962 -4.1023421e-07
vn 0.3826834 0.92387962 -4.1023421e-07
vn 0.9238795 0.38268346 -1.1759581e-07
vn 0.92387956 0.38268349 -1.1759582e-07
vn 0.017545993 -0.0072678314 -0.9998197
vn 0.017545993 -0.0072678309 -0.9998197
vn 0.017545993 -0.0072678304 -0.99981964
vn 0.0072677871 -0.017546035 -0.9998197
vn 0.0072677876 -0.017546035 -0.9998197
vn 0.0072677867 -0.017546035 -0.99981964
vn -0.0072677881 -0.017546037 -0.9998197
vn -0.0072677876 -0.017546037 -0.99981964
vn -0.017545996 -0.0072678309 -0.9998197
vn -0.017545996 0.0072677489 -0.9998197
vn -0.017545996 0.0072677485 -0.9998197
vn -0.017545996 0.0072677494 -0.9998197
vn -0.0072677881 0.017545952 -0.9998197
vn -0.0072677881 0.017545953 -0.9998197
vn -0.0072677876 0.017545952 -0.99981964
vn 0.0072677876 0.01754595 -0.9998197
vn 0.0072677871 0.01754595 -0.99981964
vn 0.017546 0.0072677471 -0.9998197
vn 0.017545998 0.0072677471 -0.9998197
vn 0.017545998 0.0072677471 -0.99981964
vn 0.017546 0.0072677475 -0.9998197
vn -0.92387956 0.38268334 -1.2191036e-07
vn -0.92387962 0.38268337 -1.2191036e-07
vn -0.92387956 0.38268337 -1.2191038e-07
vn -0.3826834 0.92387962 -2.7704522e-07
vn -0.38268337 0.92387956 -2.7704522e-07
vn 0.38268343 0.92387956 -2.7704527e-07
vn 0.38268343 0.92387962 -2.7704527e-07
vn 0.92387962 0.38268337 -9.5614681e-08
vn 0.92387956 0.38268334 -9.5614674e-08
vn 0.92387956 0.38268337 -9.5614681e-08
vn 0.92387956 -0.38268363 9.5614688e-08
vn 0.9238795 -0.38268358 9.5614688e-08
vn 0.92387956 -0.3826836 9.5614688e-08
vn 0.38268337 -0.92387956 2.7704527e-07
vn 0.3826834 -0.92387962 2.7704527e-07
vn -0.38268334 -0.92387962 3.0334095e-07
vn -0.38268331 -0.92387956 3.0334095e-07
vn -0.92387956 -0.38268349 1.2191038e-07
vn -0.9238795 -0.38268346 1.2191036e-07
vn -0.92387956 -0.38268346 1.2191038e-07
vn 0 -4.3711388e-08 -1

# Mesh 'Object001' with 172 faces
g Object001
usemtl Object001_mtl
f  1//1 2//1 3//1
f  3//1 4//1 5//2
f  5//2 6//1 7//2
f  3//1 5//2 7//2
f  1//1 3//1 7//2
f  8//1 1//1 7//2
f  7//3 6//3 9//3
f  9//3 10//3 7//3
f  6//4 5//5 11//5
f  11//5 9//4 6//4
f  5//6 4//7 12//7
f  12//7 11//6 5//6
f  4//8 3//9 13//8
f  13//8 12//9 4//8
f  3//10 2//11 14//10
f  14//10 13//11 3//10
f  2//12 1//13 15//13
f  15//13 14//12 2//12
f  1//14 8//15 16//15
f  16//15 15//14 1//14
f  8//16 7//17 10//16
f  10//16 16//18 8//16
f  10//19 9//20 17//19
f  17//19 18//20 10//19
f  9//21 11//21 19//21
f  19//21 17//22 9//21
f  11//23 12//23 20//24
f  20//24 19//23 11//23
f  12//25 13//26 21//25
f  21//25 20//27 12//25
f  13//28 14//28 22//29
f  22//29 21//30 13//28
f  14//31 15//32 23//31
f  23//31 22//33 14//31
f  15//34 16//35 24//35
f  24//35 23//35 15//34
f  16//36 10//37 18//38
f  18//38 24//38 16//36
f  18//39 17//40 25//39
f  25//39 26//39 18//39
f  17//41 19//42 27//43
f  27//43 25//44 17//41
f  19//45 20//46 28//47
f  28//47 27//48 19//45
f  20//49 21//50 29//50
f  29//50 28//50 20//49
f  21//51 22//52 30//51
f  30//51 29//51 21//51
f  22//53 23//54 31//55
f  31//55 30//56 22//53
f  23//57 24//58 32//59
f  32//59 31//60 23//57
f  24//61 18//62 26//62
f  26//62 32//62 24//61
f  26//63 25//64 33//63
f  33//63 34//64 26//63
f  25//65 27//66 35//67
f  35//67 33//68 25//65
f  27//69 28//70 36//71
f  36//71 35//71 27//69
f  28//72 29//73 37//74
f  37//74 36//74 28//72
f  29//75 30//75 38//76
f  38//76 37//75 29//75
f  30//77 31//78 39//77
f  39//77 38//79 30//77
f  31//80 32//81 40//82
f  40//82 39//82 31//80
f  32//83 26//84 34//85
f  34//85 40//86 32//83
f  34//87 33//87 41//87
f  41//87 42//88 34//87
f  33//89 35//90 43//91
f  43//91 41//92 33//89
f  35//93 36//94 44//94
f  44//94 43//95 35//93
f  36//96 37//97 45//96
f  45//96 44//98 36//96
f  37//99 38//100 46//99
f  46//99 45//101 37//99
f  38//102 39//103 47//104
f  47//104 46//104 38//102
f  39//105 40//106 48//107
f  48//107 47//107 39//105
f  40//108 34//108 42//108
f  42//108 48//109 40//108
f  42//110 41//111 49//110
f  49//110 50//111 42//110
f  41//112 43//112 51//112
f  51//112 49//112 41//112
f  43//113 44//114 52//115
f  52//115 51//116 43//113
f  44//117 45//118 53//117
f  53//117 52//118 44//117
f  45//119 46//119 54//119
f  54//119 53//119 45//119
f  46//120 47//120 55//121
f  55//121 54//121 46//120
f  47//122 48//122 56//123
f  56//123 55//124 47//122
f  48//125 42//126 50//125
f  50//125 56//126 48//125
f  50//127 49//127 57//128
f  57//128 58//127 50//127
f  49//129 51//130 59//131
f  59//131 57//131 49//129
f  51//132 52//132 60//133
f  60//133 59//134 51//132
f  52//135 53//135 61//136
f  61//136 60//136 52//135
f  53//137 54//138 62//139
f  62//139 61//139 53//137
f  54//140 55//141 63//140
f  63//140 62//142 54//140
f  55//143 56//143 64//144
f  64//144 63//145 55//143
f  56//146 50//147 58//148
f  58//148 64//148 56//146
f  58//149 57//150 65//149
f  65//149 66//151 58//149
f  57//152 59//153 67//152
f  67//152 65//153 57//152
f  59//154 60//155 68//154
f  68//154 67//155 59//154
f  60//156 61//157 69//158
f  69//158 68//157 60//156
f  61//159 62//160 70//161
f  70//161 69//160 61//159
f  62//162 63//163 71//162
f  71//162 70//163 62//162
f  63//164 64//165 72//164
f  72//164 71//165 63//164
f  64//166 58//167 66//166
f  66//166 72//167 64//166
f  66//168 65//169 73//170
f  73//170 74//169 66//168
f  65//171 67//172 75//171
f  75//171 73//173 65//171
f  67//174 68//174 76//175
f  76//175 75//174 67//174
f  68//176 69//176 77//176
f  77//176 76//176 68//176
f  69//177 70//178 78//179
f  78//179 77//179 69//177
f  70//180 71//181 79//182
f  79//182 78//182 70//180
f  71//183 72//183 80//184
f  80//184 79//184 71//183
f  72//185 66//186 74//187
f  74//187 80//188 72//185
f  74//189 73//190 81//191
f  81//191 82//190 74//189
f  73//192 75//193 83//192
f  83//192 81//193 73//192
f  75//194 76//195 84//194
f  84//194 83//195 75//194
f  76//196 77//197 85//196
f  85//196 84//198 76//196
f  77//199 78//200 86//199
f  86//199 85//201 77//199
f  78//202 79//203 87//202
f  87//202 86//203 78//202
f  79//204 80//205 88//204
f  88//204 87//205 79//204
f  80//206 74//207 82//208
f  82//208 88//207 80//206
f  82//209 81//209 83//209
f  83//209 84//209 85//209
f  85//209 86//209 87//209
f  83//209 85//209 87//209
f  82//209 83//209 87//209
f  88//209 82//209 87//209

