# File produced by Open Asset Import Library (http://www.assimp.sf.net)
# (assimp v5.0.1588609223)

mtllib result.mtl

# 76 vertex positions
v  -0.84784818 -0.93388253 0.88345182
v  -0.80057621 -0.21451932 0.79421496
v  -0.80057609 -0.21451932 -0.79421496
v  -0.84784818 -0.93388253 -0.88345182
v  0.80057609 -0.21451932 -0.79421496
v  0.84784818 -0.93388253 -0.88345182
v  0.80057621 -0.21451932 0.79421496
v  0.84784818 -0.93388253 0.88345182
v  0.7804842 -1.5212971 -0.85100138
v  -0.7804842 -1.5212971 -0.85100138
v  -0.67967182 0.33473027 -0.63983625
v  0.67967188 0.33473027 -0.63983625
v  0.67967182 0.33473027 0.63983625
v  0.53944629 0.63468045 -0.49685892
v  0.53944629 0.63468045 0.49685892
v  -0.67967182 0.33473027 0.63983625
v  0.45153528 0.80097425 -0.4194161
v  0.45153528 0.80097425 0.4194161
v  -0.53944629 0.63468045 0.49685892
v  -0.53944629 0.63468045 -0.49685892
v  -0.45153528 0.80097425 -0.4194161
v  -0.45153528 0.80097425 0.4194161
v  -0.42841521 1.0430627 0.3977142
v  -0.42841521 1.0430627 -0.3977142
v  0.42841521 1.0430627 0.3977142
v  0.42954248 1.3654203 0.3987608
v  -0.42954248 1.3654203 0.3987608
v  0.42841521 1.0430627 -0.3977142
v  0.42954248 1.3654203 -0.3987608
v  0.44737679 1.6804214 -0.415317
v  0.44737679 1.6804214 0.415317
v  -0.42954248 1.3654203 -0.3987608
v  -0.44737679 1.6804214 0.415317
v  0.48152927 1.9905416 0.44702205
v  -0.48152927 1.9905416 0.44702205
v  -0.44737679 1.6804214 -0.415317
v  0.48152927 1.9905416 -0.44702205
v  -0.48152927 1.9905416 -0.44702205
v  -0.5166285 2.3260877 -0.47960612
v  0.5166285 2.3260877 -0.47960612
v  0.5166285 2.3260877 0.47960612
v  0.52345312 2.6366005 -0.48594162
v  0.52345312 2.6366005 0.48594162
v  -0.5166285 2.3260877 0.47960612
v  -0.52345312 2.6366005 0.48594162
v  0.47027239 2.8676245 0.43657207
v  -0.47027239 2.8676245 0.43657207
v  -0.52345312 2.6366005 -0.48594162
v  0.47027239 2.8676245 -0.43657207
v  0.36263308 3.0279183 -0.33664629
v  0.36263308 3.0279183 0.33664629
v  -0.47027239 2.8676245 -0.43657207
v  0.24364658 3.1290936 -0.22618651
v  0.24364658 3.1290936 0.22618651
v  -0.36263308 3.0279183 0.33664629
v  -0.36263308 3.0279183 -0.33664629
v  -0.24364658 3.1290936 -0.22618651
v  -0.24364658 3.1290936 0.22618651
v  0.7804842 -1.5212971 0.85100138
v  0.66130757 -2.0061393 0.73427683
v  0.66130757 -2.0061393 -0.73427683
v  -0.7804842 -1.5212971 0.85100138
v  -0.66130757 -2.0061393 0.73427683
v  -0.66130757 -2.0061393 -0.73427683
v  -0.55343026 -2.4589014 -0.61065894
v  -0.55343026 -2.4589014 0.61065894
v  0.55343026 -2.4589014 0.61065894
v  -0.44754508 -2.8396327 0.49403137
v  0.44754508 -2.8396327 0.49403137
v  0.55343026 -2.4589014 -0.61065894
v  0.44754508 -2.8396327 -0.49403137
v  0.31925127 -3.0736055 0.35241175
v  0.31925127 -3.0736055 -0.35241175
v  -0.44754508 -2.8396327 -0.49403137
v  -0.31925127 -3.0736055 -0.35241175
v  -0.31925127 -3.0736055 0.35241175

# 15 UV coordinates
vt 0.29024446 0.38396502 0
vt 0.33263695 0.38396502 0
vt 0.33263695 0.42635751 0
vt 0.29024446 0.42635751 0
vt 0.33263695 0.46875 0
vt 0.29024446 0.46875 0
vt 0.33263695 0.51114249 0
vt 0.29024446 0.51114249 0
vt 0.33263695 0.55353498 0
vt 0.29024446 0.55353498 0
vt 0.91314542 0.36492443 0
vt 0.91314542 0.3473928 0
vt 0.91314542 0.32986116 0
vt 0.91314542 0.31232947 0
vt 0.91314542 0.29479778 0

# 74 vertex normals
vn -1.3699324 0.047897708 0
vn 0 0.081696488 -1.5089034
vn 1.3699324 0.047897708 0
vn 0 0.081696488 1.5089034
vn 0 -0.036501229 -1.5129555
vn 0 0.18250106 -1.4885383
vn 1.2981745 0.32261083 0
vn 1.3541707 0.15849358 0
vn -1.3541707 0.15849358 0
vn 0 0.18250106 1.4885383
vn 1.2797146 0.35968927 0
vn -1.2981745 0.32261083 0
vn 0 0.30031285 1.4440809
vn 0 0.30031285 -1.4440809
vn -1.3681904 0.069498748 0
vn -1.2797146 0.35968927 0
vn 0 0.29400152 1.4470545
vn 0 0.29400152 -1.4470545
vn 0 -0.0020999955 1.5139611
vn 0 0.059097175 1.5113183
vn 0 0.059097175 -1.5113183
vn 1.3681904 0.069498748 0
vn 1.3703419 -0.041202094 0
vn 0 -0.0020999955 -1.5139611
vn 1.3715023 -0.0024999923 0
vn -1.3715023 -0.0024999923 0
vn 0 -0.067401752 1.5105214
vn -1.3703419 -0.041202094 0
vn 0 -0.034699921 1.5130525
vn 0 -0.034699921 -1.5130525
vn 0 -0.064003192 -1.5108602
vn 0 -0.067401752 -1.5105214
vn 1.3671107 -0.079999588 0
vn -1.3671107 -0.079999588 0
vn 1.3713311 -0.015999554 0
vn 1.3675399 -0.076000594 0
vn -1.3675399 -0.076000594 0
vn 0 -0.064003192 1.5108602
vn 0 0.1397972 1.4990973
vn -1.3713311 -0.015999554 0
vn 0 -0.01350012 1.5138264
vn 0 -0.01350012 -1.5138264
vn 1.2317995 0.43971765 0
vn 0 0.1397972 -1.4990973
vn 1.3525929 0.16550161 0
vn -1.3525929 0.16550161 0
vn 1.0411608 0.65093136 0
vn -1.2317995 0.43971765 0
vn 0 0.38069949 1.399961
vn 0 0.38069949 -1.399961
vn 0 1 0
vn -1.0411608 0.65093136 0
vn 0 0.58490258 1.2279818
vn 0 0.58490258 -1.2279818
vn 1.3499986 -0.17640324 0
vn -1.3667397 -0.083302036 0
vn 1.3667397 -0.083302036 0
vn 0 -0.036501229 1.5129555
vn -1.3512566 -0.17120613 0
vn -1.3499986 -0.17640324 0
vn 0 -0.15699978 1.4951891
vn 0 -0.15699978 -1.4951891
vn 0 -0.19830805 1.4838966
vn 0 -0.17750363 1.4899229
vn 0 -0.17750363 -1.4899229
vn 1.3512566 -0.17120613 0
vn 1.2735065 -0.37121826 0
vn 0 -0.19830805 -1.4838966
vn 1.3441615 -0.19869229 0
vn -1.3441615 -0.19869229 0
vn 0 -1 0
vn -1.2735065 -0.37121826 0
vn 0 -0.37121826 1.405785
vn 0 -0.37121826 -1.405785

# Mesh 'Cube.001' with 148 faces
g Cube.001
usemtl Material.001
f  1/1/1 2/2/1 3/3/1
f  1/1/1 3/3/1 4/4/1
f  4/4/2 3/3/2 5/5/2
f  4/4/2 5/5/2 6/6/2
f  6/6/3 5/5/3 7/7/3
f  6/6/3 7/7/3 8/8/3
f  8/8/4 7/7/4 2/9/4
f  8/8/4 2/9/4 1/10/4
f  4/4/5 6/6/5 9/6/5
f  4/4/5 9/6/5 10/4/5
f  5/5/6 3/3/6 11/3/6
f  5/5/6 11/3/6 12/5/6
f  13/7/7 12/5/7 14/5/7
f  13/7/7 14/5/7 15/7/7
f  7/7/8 5/5/8 12/5/8
f  7/7/8 12/5/8 13/7/8
f  3/3/9 2/2/9 16/2/9
f  3/3/9 16/2/9 11/3/9
f  2/9/10 7/7/10 13/7/10
f  2/9/10 13/7/10 16/9/10
f  15/7/11 14/5/11 17/5/11
f  15/7/11 17/5/11 18/7/11
f  11/3/12 16/2/12 19/2/12
f  11/3/12 19/2/12 20/3/12
f  16/9/13 13/7/13 15/7/13
f  16/9/13 15/7/13 19/9/13
f  12/5/14 11/3/14 20/3/14
f  12/5/14 20/3/14 14/5/14
f  21/3/15 22/2/15 23/2/15
f  21/3/15 23/2/15 24/3/15
f  20/3/16 19/2/16 22/2/16
f  20/3/16 22/2/16 21/3/16
f  19/9/17 15/7/17 18/7/17
f  19/9/17 18/7/17 22/9/17
f  14/5/18 20/3/18 21/3/18
f  14/5/18 21/3/18 17/5/18
f  23/11/19 25/12/19 26/12/19
f  23/11/19 26/12/19 27/11/19
f  22/9/20 18/7/20 25/7/20
f  22/9/20 25/7/20 23/9/20
f  17/5/21 21/3/21 24/3/21
f  17/5/21 24/3/21 28/5/21
f  18/7/22 17/5/22 28/5/22
f  18/7/22 28/5/22 25/7/22
f  26/7/23 29/5/23 30/5/23
f  26/7/23 30/5/23 31/7/23
f  28/13/24 24/14/24 32/14/24
f  28/13/24 32/14/24 29/13/24
f  25/12/25 28/13/25 29/13/25
f  25/12/25 29/13/25 26/12/25
f  24/14/26 23/15/26 27/15/26
f  24/14/26 27/15/26 32/14/26
f  33/11/27 31/12/27 34/12/27
f  33/11/27 34/12/27 35/11/27
f  32/3/28 27/2/28 33/2/28
f  32/3/28 33/2/28 36/3/28
f  27/9/29 26/7/29 31/7/29
f  27/9/29 31/7/29 33/9/29
f  29/5/30 32/3/30 36/3/30
f  29/5/30 36/3/30 30/5/30
f  37/5/31 38/3/31 39/3/31
f  37/5/31 39/3/31 40/5/31
f  30/13/32 36/14/32 38/14/32
f  30/13/32 38/14/32 37/13/32
f  31/12/33 30/13/33 37/13/33
f  31/12/33 37/13/33 34/12/33
f  36/14/34 33/15/34 35/15/34
f  36/14/34 35/15/34 38/14/34
f  41/7/35 40/5/35 42/5/35
f  41/7/35 42/5/35 43/7/35
f  34/7/36 37/5/36 40/5/36
f  34/7/36 40/5/36 41/7/36
f  38/3/37 35/2/37 44/2/37
f  38/3/37 44/2/37 39/3/37
f  35/9/38 34/7/38 41/7/38
f  35/9/38 41/7/38 44/9/38
f  45/9/39 43/7/39 46/7/39
f  45/9/39 46/7/39 47/9/39
f  39/3/40 44/2/40 45/2/40
f  39/3/40 45/2/40 48/3/40
f  44/9/41 41/7/41 43/7/41
f  44/9/41 43/7/41 45/9/41
f  40/5/42 39/3/42 48/3/42
f  40/5/42 48/3/42 42/5/42
f  46/7/43 49/5/43 50/5/43
f  46/7/43 50/5/43 51/7/43
f  42/5/44 48/3/44 52/3/44
f  42/5/44 52/3/44 49/5/44
f  43/7/45 42/5/45 49/5/45
f  43/7/45 49/5/45 46/7/45
f  48/3/46 45/2/46 47/2/46
f  48/3/46 47/2/46 52/3/46
f  51/7/47 50/5/47 53/5/47
f  51/7/47 53/5/47 54/7/47
f  52/3/48 47/2/48 55/2/48
f  52/3/48 55/2/48 56/3/48
f  47/9/49 46/7/49 51/7/49
f  47/9/49 51/7/49 55/9/49
f  49/5/50 52/3/50 56/3/50
f  49/5/50 56/3/50 50/5/50
f  53/5/51 57/3/51 58/2/51
f  53/5/51 58/2/51 54/7/51
f  56/3/52 55/2/52 58/2/52
f  56/3/52 58/2/52 57/3/52
f  55/9/53 51/7/53 54/7/53
f  55/9/53 54/7/53 58/9/53
f  50/5/54 56/3/54 57/3/54
f  50/5/54 57/3/54 53/5/54
f  9/6/55 59/8/55 60/8/55
f  9/6/55 60/8/55 61/6/55
f  1/1/56 4/4/56 10/4/56
f  1/1/56 10/4/56 62/1/56
f  6/6/57 8/8/57 59/8/57
f  6/6/57 59/8/57 9/6/57
f  8/8/58 1/10/58 62/10/58
f  8/8/58 62/10/58 59/8/58
f  63/1/59 64/4/59 65/4/59
f  63/1/59 65/4/59 66/1/59
f  62/1/60 10/4/60 64/4/60
f  62/1/60 64/4/60 63/1/60
f  59/8/61 62/10/61 63/10/61
f  59/8/61 63/10/61 60/8/61
f  10/4/62 9/6/62 61/6/62
f  10/4/62 61/6/62 64/4/62
f  67/8/63 66/10/63 68/10/63
f  67/8/63 68/10/63 69/8/63
f  60/8/64 63/10/64 66/10/64
f  60/8/64 66/10/64 67/8/64
f  64/4/65 61/6/65 70/6/65
f  64/4/65 70/6/65 65/4/65
f  61/6/66 60/8/66 67/8/66
f  61/6/66 67/8/66 70/6/66
f  71/6/67 69/8/67 72/8/67
f  71/6/67 72/8/67 73/6/67
f  65/4/68 70/6/68 71/6/68
f  65/4/68 71/6/68 74/4/68
f  70/6/69 67/8/69 69/8/69
f  70/6/69 69/8/69 71/6/69
f  66/1/70 65/4/70 74/4/70
f  66/1/70 74/4/70 68/1/70
f  75/4/71 73/6/71 72/8/71
f  75/4/71 72/8/71 76/10/71
f  68/1/72 74/4/72 75/4/72
f  68/1/72 75/4/72 76/1/72
f  69/8/73 68/10/73 76/10/73
f  69/8/73 76/10/73 72/8/73
f  74/4/74 71/6/74 73/6/74
f  74/4/74 73/6/74 75/4/74

